M48
;Layer_Color=9474304
;FILE_FORMAT=2:3
INCH,LZ
;TYPE=PLATED
T1F00S00C0.055
%
T01
X00315Y004
X0048
Y00615
X00315
X0032Y014
X00485
X00987
X01152
X01653
X01818
X0232
X02485
X0248Y00615
X02315
Y004
X0248
X02485Y01615
X0232
X02315Y021
X0248
Y02315
X02315
X01818Y01615
X01653
X01152
X00987
X00485
X0032
X00315Y021
X0048
Y02315
X00315
M30
