%FSLAX23Y23*%
%MOIN*%
G70*
G01*
G75*
G04 Layer_Physical_Order=2*
G04 Layer_Color=16711680*
%ADD10C,0.091*%
G36*
X2560Y2030D02*
X2240D01*
Y2170D01*
X2560D01*
Y2030D01*
D02*
G37*
G36*
X380Y2230D02*
X160D01*
Y1900D01*
X560D01*
Y1710D01*
X2160D01*
Y1250D01*
X2380D01*
Y540D01*
X2250D01*
Y1150D01*
X2050D01*
Y1540D01*
X160D01*
Y1250D01*
X380D01*
Y540D01*
X240D01*
Y1150D01*
X50D01*
Y1710D01*
X400D01*
Y1800D01*
X50D01*
Y2390D01*
X380D01*
Y2230D01*
D02*
G37*
G36*
X2380D02*
X2160D01*
Y1900D01*
X2600D01*
Y1540D01*
X2410D01*
Y1800D01*
X2060D01*
Y2390D01*
X2380D01*
Y2230D01*
D02*
G37*
G36*
X560Y2030D02*
X240D01*
Y2170D01*
X560D01*
Y2030D01*
D02*
G37*
G36*
Y330D02*
X240D01*
Y470D01*
X560D01*
Y330D01*
D02*
G37*
G36*
X2560D02*
X2240D01*
Y470D01*
X2560D01*
Y330D01*
D02*
G37*
%LPC*%
G36*
X1207Y1610D02*
X1157D01*
Y1560D01*
X1166Y1561D01*
X1180Y1567D01*
X1191Y1576D01*
X1200Y1587D01*
X1206Y1601D01*
X1207Y1610D01*
D02*
G37*
G36*
X320Y670D02*
Y620D01*
X370D01*
X369Y629D01*
X363Y643D01*
X354Y654D01*
X343Y663D01*
X329Y669D01*
X320Y670D01*
D02*
G37*
G36*
X2310D02*
X2301Y669D01*
X2287Y663D01*
X2276Y654D01*
X2267Y643D01*
X2261Y629D01*
X2260Y620D01*
X2310D01*
Y670D01*
D02*
G37*
G36*
X310Y395D02*
X260D01*
X261Y386D01*
X267Y372D01*
X276Y361D01*
X287Y352D01*
X301Y346D01*
X310Y345D01*
Y395D01*
D02*
G37*
G36*
X2310Y610D02*
X2260D01*
X2261Y601D01*
X2267Y587D01*
X2276Y576D01*
X2287Y567D01*
X2301Y561D01*
X2310Y560D01*
Y610D01*
D02*
G37*
G36*
X2370D02*
X2320D01*
Y560D01*
X2329Y561D01*
X2343Y567D01*
X2354Y576D01*
X2363Y587D01*
X2369Y601D01*
X2370Y610D01*
D02*
G37*
G36*
X310Y670D02*
X301Y669D01*
X287Y663D01*
X276Y654D01*
X267Y643D01*
X261Y629D01*
X260Y620D01*
X310D01*
Y670D01*
D02*
G37*
G36*
X1653Y1671D02*
X1639Y1669D01*
X1625Y1663D01*
X1614Y1654D01*
X1605Y1643D01*
X1599Y1629D01*
X1598Y1615D01*
X1599Y1601D01*
X1605Y1587D01*
X1614Y1576D01*
X1625Y1567D01*
X1639Y1561D01*
X1653Y1559D01*
X1668Y1561D01*
X1681Y1567D01*
X1693Y1576D01*
X1702Y1587D01*
X1707Y1601D01*
X1709Y1615D01*
X1707Y1629D01*
X1702Y1643D01*
X1693Y1654D01*
X1681Y1663D01*
X1668Y1669D01*
X1653Y1671D01*
D02*
G37*
G36*
X480Y1610D02*
X430D01*
X431Y1601D01*
X437Y1587D01*
X446Y1576D01*
X457Y1567D01*
X471Y1561D01*
X480Y1560D01*
Y1610D01*
D02*
G37*
G36*
X540D02*
X490D01*
Y1560D01*
X499Y1561D01*
X513Y1567D01*
X524Y1576D01*
X533Y1587D01*
X539Y1601D01*
X540Y1610D01*
D02*
G37*
G36*
X987Y1671D02*
X972Y1669D01*
X959Y1663D01*
X947Y1654D01*
X938Y1643D01*
X933Y1629D01*
X931Y1615D01*
X933Y1601D01*
X938Y1587D01*
X947Y1576D01*
X959Y1567D01*
X972Y1561D01*
X987Y1559D01*
X1001Y1561D01*
X1015Y1567D01*
X1026Y1576D01*
X1035Y1587D01*
X1041Y1601D01*
X1042Y1615D01*
X1041Y1629D01*
X1035Y1643D01*
X1026Y1654D01*
X1015Y1663D01*
X1001Y1669D01*
X987Y1671D01*
D02*
G37*
G36*
X2320Y670D02*
Y620D01*
X2370D01*
X2369Y629D01*
X2363Y643D01*
X2354Y654D01*
X2343Y663D01*
X2329Y669D01*
X2320Y670D01*
D02*
G37*
G36*
X1147Y1610D02*
X1097D01*
X1098Y1601D01*
X1103Y1587D01*
X1112Y1576D01*
X1124Y1567D01*
X1137Y1561D01*
X1147Y1560D01*
Y1610D01*
D02*
G37*
G36*
X320Y1671D02*
X306Y1669D01*
X292Y1663D01*
X281Y1654D01*
X272Y1643D01*
X266Y1629D01*
X264Y1615D01*
X266Y1601D01*
X272Y1587D01*
X281Y1576D01*
X292Y1567D01*
X306Y1561D01*
X320Y1559D01*
X334Y1561D01*
X348Y1567D01*
X359Y1576D01*
X368Y1587D01*
X374Y1601D01*
X376Y1615D01*
X374Y1629D01*
X368Y1643D01*
X359Y1654D01*
X348Y1663D01*
X334Y1669D01*
X320Y1671D01*
D02*
G37*
G36*
X370Y610D02*
X320D01*
Y560D01*
X329Y561D01*
X343Y567D01*
X354Y576D01*
X363Y587D01*
X369Y601D01*
X370Y610D01*
D02*
G37*
G36*
X2535Y395D02*
X2485D01*
Y345D01*
X2494Y346D01*
X2508Y352D01*
X2519Y361D01*
X2528Y372D01*
X2534Y386D01*
X2535Y395D01*
D02*
G37*
G36*
X2475D02*
X2425D01*
X2426Y386D01*
X2432Y372D01*
X2441Y361D01*
X2452Y352D01*
X2466Y346D01*
X2475Y345D01*
Y395D01*
D02*
G37*
G36*
X320Y455D02*
Y405D01*
X370D01*
X369Y414D01*
X363Y428D01*
X354Y439D01*
X343Y448D01*
X329Y454D01*
X320Y455D01*
D02*
G37*
G36*
X310D02*
X301Y454D01*
X287Y448D01*
X276Y439D01*
X267Y428D01*
X261Y414D01*
X260Y405D01*
X310D01*
Y455D01*
D02*
G37*
G36*
X535Y395D02*
X485D01*
Y345D01*
X494Y346D01*
X508Y352D01*
X519Y361D01*
X528Y372D01*
X534Y386D01*
X535Y395D01*
D02*
G37*
G36*
X475D02*
X425D01*
X426Y386D01*
X432Y372D01*
X441Y361D01*
X452Y352D01*
X466Y346D01*
X475Y345D01*
Y395D01*
D02*
G37*
G36*
X2370D02*
X2320D01*
Y345D01*
X2329Y346D01*
X2343Y352D01*
X2354Y361D01*
X2363Y372D01*
X2369Y386D01*
X2370Y395D01*
D02*
G37*
G36*
X2310D02*
X2260D01*
X2261Y386D01*
X2267Y372D01*
X2276Y361D01*
X2287Y352D01*
X2301Y346D01*
X2310Y345D01*
Y395D01*
D02*
G37*
G36*
X2485Y455D02*
Y405D01*
X2535D01*
X2534Y414D01*
X2528Y428D01*
X2519Y439D01*
X2508Y448D01*
X2494Y454D01*
X2485Y455D01*
D02*
G37*
G36*
X2475D02*
X2466Y454D01*
X2452Y448D01*
X2441Y439D01*
X2432Y428D01*
X2426Y414D01*
X2425Y405D01*
X2475D01*
Y455D01*
D02*
G37*
G36*
X310Y610D02*
X260D01*
X261Y601D01*
X267Y587D01*
X276Y576D01*
X287Y567D01*
X301Y561D01*
X310Y560D01*
Y610D01*
D02*
G37*
G36*
X370Y395D02*
X320D01*
Y345D01*
X329Y346D01*
X343Y352D01*
X354Y361D01*
X363Y372D01*
X369Y386D01*
X370Y395D01*
D02*
G37*
G36*
X485Y455D02*
Y405D01*
X535D01*
X534Y414D01*
X528Y428D01*
X519Y439D01*
X508Y448D01*
X494Y454D01*
X485Y455D01*
D02*
G37*
G36*
X475D02*
X466Y454D01*
X452Y448D01*
X441Y439D01*
X432Y428D01*
X426Y414D01*
X425Y405D01*
X475D01*
Y455D01*
D02*
G37*
G36*
X2320D02*
Y405D01*
X2370D01*
X2369Y414D01*
X2363Y428D01*
X2354Y439D01*
X2343Y448D01*
X2329Y454D01*
X2320Y455D01*
D02*
G37*
G36*
X2310D02*
X2301Y454D01*
X2287Y448D01*
X2276Y439D01*
X2267Y428D01*
X2261Y414D01*
X2260Y405D01*
X2310D01*
Y455D01*
D02*
G37*
G36*
X1813Y1610D02*
X1763D01*
X1764Y1601D01*
X1770Y1587D01*
X1779Y1576D01*
X1790Y1567D01*
X1804Y1561D01*
X1813Y1560D01*
Y1610D01*
D02*
G37*
G36*
X2310Y2155D02*
X2301Y2154D01*
X2287Y2148D01*
X2276Y2139D01*
X2267Y2128D01*
X2261Y2114D01*
X2260Y2105D01*
X2310D01*
Y2155D01*
D02*
G37*
G36*
X485D02*
Y2105D01*
X535D01*
X534Y2114D01*
X528Y2128D01*
X519Y2139D01*
X508Y2148D01*
X494Y2154D01*
X485Y2155D01*
D02*
G37*
G36*
X2475D02*
X2466Y2154D01*
X2452Y2148D01*
X2441Y2139D01*
X2432Y2128D01*
X2426Y2114D01*
X2425Y2105D01*
X2475D01*
Y2155D01*
D02*
G37*
G36*
X2320D02*
Y2105D01*
X2370D01*
X2369Y2114D01*
X2363Y2128D01*
X2354Y2139D01*
X2343Y2148D01*
X2329Y2154D01*
X2320Y2155D01*
D02*
G37*
G36*
X310D02*
X301Y2154D01*
X287Y2148D01*
X276Y2139D01*
X267Y2128D01*
X261Y2114D01*
X260Y2105D01*
X310D01*
Y2155D01*
D02*
G37*
G36*
X2535Y2095D02*
X2485D01*
Y2045D01*
X2494Y2046D01*
X2508Y2052D01*
X2519Y2061D01*
X2528Y2072D01*
X2534Y2086D01*
X2535Y2095D01*
D02*
G37*
G36*
X475Y2155D02*
X466Y2154D01*
X452Y2148D01*
X441Y2139D01*
X432Y2128D01*
X426Y2114D01*
X425Y2105D01*
X475D01*
Y2155D01*
D02*
G37*
G36*
X320D02*
Y2105D01*
X370D01*
X369Y2114D01*
X363Y2128D01*
X354Y2139D01*
X343Y2148D01*
X329Y2154D01*
X320Y2155D01*
D02*
G37*
G36*
X2485D02*
Y2105D01*
X2535D01*
X2534Y2114D01*
X2528Y2128D01*
X2519Y2139D01*
X2508Y2148D01*
X2494Y2154D01*
X2485Y2155D01*
D02*
G37*
G36*
X320Y2370D02*
Y2320D01*
X370D01*
X369Y2329D01*
X363Y2343D01*
X354Y2354D01*
X343Y2363D01*
X329Y2369D01*
X320Y2370D01*
D02*
G37*
G36*
X310D02*
X301Y2369D01*
X287Y2363D01*
X276Y2354D01*
X267Y2343D01*
X261Y2329D01*
X260Y2320D01*
X310D01*
Y2370D01*
D02*
G37*
G36*
X2320D02*
Y2320D01*
X2370D01*
X2369Y2329D01*
X2363Y2343D01*
X2354Y2354D01*
X2343Y2363D01*
X2329Y2369D01*
X2320Y2370D01*
D02*
G37*
G36*
X2310D02*
X2301Y2369D01*
X2287Y2363D01*
X2276Y2354D01*
X2267Y2343D01*
X2261Y2329D01*
X2260Y2320D01*
X2310D01*
Y2370D01*
D02*
G37*
G36*
X370Y2310D02*
X320D01*
Y2260D01*
X329Y2261D01*
X343Y2267D01*
X354Y2276D01*
X363Y2287D01*
X369Y2301D01*
X370Y2310D01*
D02*
G37*
G36*
X310D02*
X260D01*
X261Y2301D01*
X267Y2287D01*
X276Y2276D01*
X287Y2267D01*
X301Y2261D01*
X310Y2260D01*
Y2310D01*
D02*
G37*
G36*
X2370D02*
X2320D01*
Y2260D01*
X2329Y2261D01*
X2343Y2267D01*
X2354Y2276D01*
X2363Y2287D01*
X2369Y2301D01*
X2370Y2310D01*
D02*
G37*
G36*
X2310D02*
X2260D01*
X2261Y2301D01*
X2267Y2287D01*
X2276Y2276D01*
X2287Y2267D01*
X2301Y2261D01*
X2310Y2260D01*
Y2310D01*
D02*
G37*
G36*
X2475Y2095D02*
X2425D01*
X2426Y2086D01*
X2432Y2072D01*
X2441Y2061D01*
X2452Y2052D01*
X2466Y2046D01*
X2475Y2045D01*
Y2095D01*
D02*
G37*
G36*
X1147Y1670D02*
X1137Y1669D01*
X1124Y1663D01*
X1112Y1654D01*
X1103Y1643D01*
X1098Y1629D01*
X1097Y1620D01*
X1147D01*
Y1670D01*
D02*
G37*
G36*
X490D02*
Y1620D01*
X540D01*
X539Y1629D01*
X533Y1643D01*
X524Y1654D01*
X513Y1663D01*
X499Y1669D01*
X490Y1670D01*
D02*
G37*
G36*
X1813D02*
X1804Y1669D01*
X1790Y1663D01*
X1779Y1654D01*
X1770Y1643D01*
X1764Y1629D01*
X1763Y1620D01*
X1813D01*
Y1670D01*
D02*
G37*
G36*
X1157D02*
Y1620D01*
X1207D01*
X1206Y1629D01*
X1200Y1643D01*
X1191Y1654D01*
X1180Y1663D01*
X1166Y1669D01*
X1157Y1670D01*
D02*
G37*
G36*
X2480Y1610D02*
X2430D01*
X2431Y1601D01*
X2437Y1587D01*
X2446Y1576D01*
X2457Y1567D01*
X2471Y1561D01*
X2480Y1560D01*
Y1610D01*
D02*
G37*
G36*
X1873D02*
X1823D01*
Y1560D01*
X1833Y1561D01*
X1846Y1567D01*
X1858Y1576D01*
X1867Y1587D01*
X1872Y1601D01*
X1873Y1610D01*
D02*
G37*
G36*
X480Y1670D02*
X471Y1669D01*
X457Y1663D01*
X446Y1654D01*
X437Y1643D01*
X431Y1629D01*
X430Y1620D01*
X480D01*
Y1670D01*
D02*
G37*
G36*
X2540Y1610D02*
X2490D01*
Y1560D01*
X2499Y1561D01*
X2513Y1567D01*
X2524Y1576D01*
X2533Y1587D01*
X2539Y1601D01*
X2540Y1610D01*
D02*
G37*
G36*
X1823Y1670D02*
Y1620D01*
X1873D01*
X1872Y1629D01*
X1867Y1643D01*
X1858Y1654D01*
X1846Y1663D01*
X1833Y1669D01*
X1823Y1670D01*
D02*
G37*
G36*
X535Y2095D02*
X485D01*
Y2045D01*
X494Y2046D01*
X508Y2052D01*
X519Y2061D01*
X528Y2072D01*
X534Y2086D01*
X535Y2095D01*
D02*
G37*
G36*
X475D02*
X425D01*
X426Y2086D01*
X432Y2072D01*
X441Y2061D01*
X452Y2052D01*
X466Y2046D01*
X475Y2045D01*
Y2095D01*
D02*
G37*
G36*
X2370D02*
X2320D01*
Y2045D01*
X2329Y2046D01*
X2343Y2052D01*
X2354Y2061D01*
X2363Y2072D01*
X2369Y2086D01*
X2370Y2095D01*
D02*
G37*
G36*
X2310D02*
X2260D01*
X2261Y2086D01*
X2267Y2072D01*
X2276Y2061D01*
X2287Y2052D01*
X2301Y2046D01*
X2310Y2045D01*
Y2095D01*
D02*
G37*
G36*
X2490Y1670D02*
Y1620D01*
X2540D01*
X2539Y1629D01*
X2533Y1643D01*
X2524Y1654D01*
X2513Y1663D01*
X2499Y1669D01*
X2490Y1670D01*
D02*
G37*
G36*
X2480D02*
X2471Y1669D01*
X2457Y1663D01*
X2446Y1654D01*
X2437Y1643D01*
X2431Y1629D01*
X2430Y1620D01*
X2480D01*
Y1670D01*
D02*
G37*
G36*
X370Y2095D02*
X320D01*
Y2045D01*
X329Y2046D01*
X343Y2052D01*
X354Y2061D01*
X363Y2072D01*
X369Y2086D01*
X370Y2095D01*
D02*
G37*
G36*
X310D02*
X260D01*
X261Y2086D01*
X267Y2072D01*
X276Y2061D01*
X287Y2052D01*
X301Y2046D01*
X310Y2045D01*
Y2095D01*
D02*
G37*
%LPD*%
D10*
X2315Y2315D02*
D03*
X2480D02*
D03*
Y2100D02*
D03*
X2315D02*
D03*
Y615D02*
D03*
X2480D02*
D03*
Y400D02*
D03*
X2315D02*
D03*
X315Y615D02*
D03*
X480D02*
D03*
Y400D02*
D03*
X315D02*
D03*
Y2315D02*
D03*
X480D02*
D03*
Y2100D02*
D03*
X315D02*
D03*
X485Y1615D02*
D03*
X320D02*
D03*
Y1400D02*
D03*
X485D02*
D03*
X1152Y1615D02*
D03*
X987D02*
D03*
Y1400D02*
D03*
X1152D02*
D03*
X1818Y1615D02*
D03*
X1653D02*
D03*
Y1400D02*
D03*
X1818D02*
D03*
X2485Y1615D02*
D03*
X2320D02*
D03*
Y1400D02*
D03*
X2485D02*
D03*
M02*
