%FSLAX23Y23*%
%MOIN*%
G70*
G01*
G75*
%ADD10C,0.091*%
%ADD11C,0.010*%
%ADD12C,0.040*%
%ADD13C,0.020*%
%ADD14C,0.099*%
D11*
X2287Y2315D02*
X2343D01*
X2315Y2287D02*
Y2343D01*
X2452Y2315D02*
X2508D01*
X2480Y2287D02*
Y2343D01*
X2452Y2100D02*
X2508D01*
X2480Y2072D02*
Y2128D01*
X2287Y2100D02*
X2343D01*
X2315Y2072D02*
Y2128D01*
X2287Y615D02*
X2343D01*
X2315Y587D02*
Y643D01*
X2452Y615D02*
X2508D01*
X2480Y587D02*
Y643D01*
X2452Y400D02*
X2508D01*
X2480Y372D02*
Y428D01*
X2287Y400D02*
X2343D01*
X2315Y372D02*
Y428D01*
X287Y615D02*
X343D01*
X315Y587D02*
Y643D01*
X452Y615D02*
X508D01*
X480Y587D02*
Y643D01*
X452Y400D02*
X508D01*
X480Y372D02*
Y428D01*
X287Y400D02*
X343D01*
X315Y372D02*
Y428D01*
X287Y2315D02*
X343D01*
X315Y2287D02*
Y2343D01*
X452Y2315D02*
X508D01*
X480Y2287D02*
Y2343D01*
X452Y2100D02*
X508D01*
X480Y2072D02*
Y2128D01*
X287Y2100D02*
X343D01*
X315Y2072D02*
Y2128D01*
X457Y1615D02*
X513D01*
X485Y1587D02*
Y1643D01*
X292Y1615D02*
X348D01*
X320Y1587D02*
Y1643D01*
X292Y1400D02*
X348D01*
X320Y1372D02*
Y1428D01*
X457Y1400D02*
X513D01*
X485Y1372D02*
Y1428D01*
X1124Y1615D02*
X1179D01*
X1152Y1587D02*
Y1643D01*
X959Y1615D02*
X1014D01*
X987Y1587D02*
Y1643D01*
X959Y1400D02*
X1014D01*
X987Y1372D02*
Y1428D01*
X1124Y1400D02*
X1179D01*
X1152Y1372D02*
Y1428D01*
X1791Y1615D02*
X1846D01*
X1818Y1587D02*
Y1643D01*
X1626Y1615D02*
X1681D01*
X1653Y1587D02*
Y1643D01*
X1626Y1400D02*
X1681D01*
X1653Y1372D02*
Y1428D01*
X1791Y1400D02*
X1846D01*
X1818Y1372D02*
Y1428D01*
X2457Y1615D02*
X2513D01*
X2485Y1587D02*
Y1643D01*
X2292Y1615D02*
X2348D01*
X2320Y1587D02*
Y1643D01*
X2292Y1400D02*
X2348D01*
X2320Y1372D02*
Y1428D01*
X2457Y1400D02*
X2513D01*
X2485Y1372D02*
Y1428D01*
M02*
