%FSLAX23Y23*%
%MOIN*%
G70*
G01*
G75*
G04 Layer_Color=65535*
%ADD10C,0.091*%
%ADD11C,0.010*%
%ADD12C,0.040*%
%ADD13C,0.020*%
D11*
X2190Y1975D02*
Y2410D01*
Y1975D02*
X2605D01*
Y2410D01*
X2190D02*
X2605D01*
X2365Y1940D02*
Y1975D01*
Y1940D02*
X2425D01*
Y1970D01*
X2190Y275D02*
Y710D01*
Y275D02*
X2605D01*
Y710D01*
X2190D02*
X2605D01*
X2365Y240D02*
Y275D01*
Y240D02*
X2425D01*
Y270D01*
X190Y275D02*
Y710D01*
Y275D02*
X605D01*
Y710D01*
X190D02*
X605D01*
X365Y240D02*
Y275D01*
Y240D02*
X425D01*
Y270D01*
X190Y1975D02*
Y2410D01*
Y1975D02*
X605D01*
Y2410D01*
X190D02*
X605D01*
X365Y1940D02*
Y1975D01*
Y1940D02*
X425D01*
Y1970D01*
X194Y2444D02*
Y2484D01*
X214Y2504D01*
X234Y2484D01*
Y2444D01*
Y2474D01*
X194D01*
X254Y2444D02*
Y2504D01*
X284D01*
X294Y2494D01*
Y2474D01*
X284Y2464D01*
X254D01*
X274D02*
X294Y2444D01*
X314Y2504D02*
Y2444D01*
X344D01*
X354Y2454D01*
Y2494D01*
X344Y2504D01*
X314D01*
X374D02*
Y2454D01*
X384Y2444D01*
X404D01*
X414Y2454D01*
Y2504D01*
X434D02*
X454D01*
X444D01*
Y2444D01*
X434D01*
X454D01*
X484D02*
Y2504D01*
X524Y2444D01*
Y2504D01*
X574D02*
X554D01*
X544Y2494D01*
Y2454D01*
X554Y2444D01*
X574D01*
X584Y2454D01*
Y2494D01*
X574Y2504D01*
X194Y804D02*
Y744D01*
X224D01*
X234Y754D01*
Y764D01*
X224Y774D01*
X194D01*
X224D01*
X234Y784D01*
Y794D01*
X224Y804D01*
X194D01*
X254D02*
X274D01*
X264D01*
Y744D01*
X254D01*
X274D01*
X344Y794D02*
X334Y804D01*
X314D01*
X304Y794D01*
Y754D01*
X314Y744D01*
X334D01*
X344Y754D01*
Y774D01*
X324D01*
X364Y744D02*
Y804D01*
X394D01*
X404Y794D01*
Y774D01*
X394Y764D01*
X364D01*
X384D02*
X404Y744D01*
X464Y804D02*
X424D01*
Y744D01*
X464D01*
X424Y774D02*
X444D01*
X484Y804D02*
Y744D01*
X514D01*
X524Y754D01*
Y794D01*
X514Y804D01*
X484D01*
X544D02*
Y744D01*
X574D01*
X584Y754D01*
Y764D01*
X574Y774D01*
X544D01*
X574D01*
X584Y784D01*
Y794D01*
X574Y804D01*
X544D01*
X644D02*
X604D01*
Y744D01*
X644D01*
X604Y774D02*
X624D01*
X704Y804D02*
X664D01*
Y744D01*
X704D01*
X664Y774D02*
X684D01*
X2194Y2504D02*
Y2444D01*
X2224D01*
X2234Y2454D01*
Y2464D01*
X2224Y2474D01*
X2194D01*
X2224D01*
X2234Y2484D01*
Y2494D01*
X2224Y2504D01*
X2194D01*
X2254D02*
Y2494D01*
X2274Y2474D01*
X2294Y2494D01*
Y2504D01*
X2274Y2474D02*
Y2444D01*
X2344Y2504D02*
X2324D01*
X2314Y2494D01*
Y2454D01*
X2324Y2444D01*
X2344D01*
X2354Y2454D01*
Y2494D01*
X2344Y2504D01*
X2374Y2444D02*
Y2504D01*
X2414Y2444D01*
Y2504D01*
X2434D02*
X2454D01*
X2444D01*
Y2444D01*
X2434D01*
X2454D01*
X2524Y2494D02*
X2514Y2504D01*
X2494D01*
X2484Y2494D01*
Y2454D01*
X2494Y2444D01*
X2514D01*
X2524Y2454D01*
X2584Y2494D02*
X2574Y2504D01*
X2554D01*
X2544Y2494D01*
Y2484D01*
X2554Y2474D01*
X2574D01*
X2584Y2464D01*
Y2454D01*
X2574Y2444D01*
X2554D01*
X2544Y2454D01*
X2194Y744D02*
Y804D01*
X2224D01*
X2234Y794D01*
Y774D01*
X2224Y764D01*
X2194D01*
X2214D02*
X2234Y744D01*
X2254D02*
Y784D01*
X2274Y804D01*
X2294Y784D01*
Y744D01*
Y774D01*
X2254D01*
X2314Y804D02*
Y764D01*
X2334Y744D01*
X2354Y764D01*
Y804D01*
X2414D02*
X2374D01*
Y744D01*
X2414D01*
X2374Y774D02*
X2394D01*
X2434Y744D02*
Y804D01*
X2474Y744D01*
Y804D01*
X683Y2232D02*
X675Y2240D01*
X658D01*
X650Y2232D01*
Y2223D01*
X658Y2215D01*
X675D01*
X683Y2207D01*
Y2198D01*
X675Y2190D01*
X658D01*
X650Y2198D01*
X700Y2240D02*
Y2190D01*
X717Y2207D01*
X733Y2190D01*
Y2240D01*
X110Y2105D02*
X143D01*
X127Y2122D02*
Y2088D01*
X110Y405D02*
X143D01*
X127Y422D02*
Y388D01*
X2110Y405D02*
X2143D01*
X2127Y422D02*
Y388D01*
X2110Y2105D02*
X2143D01*
X2127Y2122D02*
Y2088D01*
X2110Y2315D02*
X2143D01*
X2110Y615D02*
X2143D01*
X110D02*
X143D01*
X110Y2315D02*
X143D01*
X2683Y2232D02*
X2675Y2240D01*
X2658D01*
X2650Y2232D01*
Y2223D01*
X2658Y2215D01*
X2675D01*
X2683Y2207D01*
Y2198D01*
X2675Y2190D01*
X2658D01*
X2650Y2198D01*
X2700Y2240D02*
Y2190D01*
X2717Y2207D01*
X2733Y2190D01*
Y2240D01*
X2683Y532D02*
X2675Y540D01*
X2658D01*
X2650Y532D01*
Y523D01*
X2658Y515D01*
X2675D01*
X2683Y507D01*
Y498D01*
X2675Y490D01*
X2658D01*
X2650Y498D01*
X2700Y540D02*
Y490D01*
X2717Y507D01*
X2733Y490D01*
Y540D01*
X683Y532D02*
X675Y540D01*
X658D01*
X650Y532D01*
Y523D01*
X658Y515D01*
X675D01*
X683Y507D01*
Y498D01*
X675Y490D01*
X658D01*
X650Y498D01*
X700Y540D02*
Y490D01*
X717Y507D01*
X733Y490D01*
Y540D01*
D12*
X820Y2025D02*
Y1879D01*
X849Y1850D01*
X907D01*
X937Y1879D01*
Y2025D01*
X1112Y1996D02*
X1082Y2025D01*
X1024D01*
X995Y1996D01*
Y1967D01*
X1024Y1937D01*
X1082D01*
X1112Y1908D01*
Y1879D01*
X1082Y1850D01*
X1024D01*
X995Y1879D01*
X1287Y1996D02*
X1257Y2025D01*
X1199D01*
X1170Y1996D01*
Y1879D01*
X1199Y1850D01*
X1257D01*
X1287Y1879D01*
X1520Y1850D02*
Y2025D01*
X1607D01*
X1636Y1996D01*
Y1937D01*
X1607Y1908D01*
X1520D01*
X1578D02*
X1636Y1850D01*
X1695D02*
Y2025D01*
X1782D01*
X1811Y1996D01*
Y1937D01*
X1782Y1908D01*
X1695D01*
X1870Y2025D02*
Y1850D01*
X1986D01*
D13*
X770Y980D02*
Y1097D01*
X828Y1155D01*
X887Y1097D01*
Y980D01*
Y1067D01*
X770D01*
X945Y1155D02*
Y1038D01*
X1003Y980D01*
X1062Y1038D01*
Y1155D01*
X1120D02*
X1178D01*
X1149D01*
Y980D01*
X1120D01*
X1178D01*
X1353Y1155D02*
X1295D01*
X1266Y1126D01*
Y1009D01*
X1295Y980D01*
X1353D01*
X1382Y1009D01*
Y1126D01*
X1353Y1155D01*
X1441Y980D02*
Y1155D01*
X1557Y980D01*
Y1155D01*
X1616D02*
X1674D01*
X1645D01*
Y980D01*
X1616D01*
X1674D01*
X1878Y1126D02*
X1849Y1155D01*
X1791D01*
X1761Y1126D01*
Y1009D01*
X1791Y980D01*
X1849D01*
X1878Y1009D01*
X2053Y1126D02*
X2024Y1155D01*
X1965D01*
X1936Y1126D01*
Y1097D01*
X1965Y1067D01*
X2024D01*
X2053Y1038D01*
Y1009D01*
X2024Y980D01*
X1965D01*
X1936Y1009D01*
M02*
