%FSLAX23Y23*%
%MOIN*%
G70*
G01*
G75*
%ADD10C,0.091*%
%ADD11C,0.010*%
%ADD12C,0.040*%
%ADD13C,0.020*%
%ADD14C,0.099*%
D11*
X2295Y2295D02*
Y2335D01*
X2335D01*
Y2295D01*
X2295D01*
X2460D02*
Y2335D01*
X2500D01*
Y2295D01*
X2460D01*
Y2080D02*
Y2120D01*
X2500D01*
Y2080D01*
X2460D01*
X2295D02*
Y2120D01*
X2335D01*
Y2080D01*
X2295D01*
Y595D02*
Y635D01*
X2335D01*
Y595D01*
X2295D01*
X2460D02*
Y635D01*
X2500D01*
Y595D01*
X2460D01*
Y380D02*
Y420D01*
X2500D01*
Y380D01*
X2460D01*
X2295D02*
Y420D01*
X2335D01*
Y380D01*
X2295D01*
X295Y595D02*
Y635D01*
X335D01*
Y595D01*
X295D01*
X460D02*
Y635D01*
X500D01*
Y595D01*
X460D01*
Y380D02*
Y420D01*
X500D01*
Y380D01*
X460D01*
X295D02*
Y420D01*
X335D01*
Y380D01*
X295D01*
Y2295D02*
Y2335D01*
X335D01*
Y2295D01*
X295D01*
X460D02*
Y2335D01*
X500D01*
Y2295D01*
X460D01*
Y2080D02*
Y2120D01*
X500D01*
Y2080D01*
X460D01*
X295D02*
Y2120D01*
X335D01*
Y2080D01*
X295D01*
X465Y1595D02*
Y1635D01*
X505D01*
Y1595D01*
X465D01*
X300D02*
Y1635D01*
X340D01*
Y1595D01*
X300D01*
Y1380D02*
Y1420D01*
X340D01*
Y1380D01*
X300D01*
X465D02*
Y1420D01*
X505D01*
Y1380D01*
X465D01*
X1132Y1595D02*
Y1635D01*
X1172D01*
Y1595D01*
X1132D01*
X967D02*
Y1635D01*
X1007D01*
Y1595D01*
X967D01*
Y1380D02*
Y1420D01*
X1007D01*
Y1380D01*
X967D01*
X1132D02*
Y1420D01*
X1172D01*
Y1380D01*
X1132D01*
X1798Y1595D02*
Y1635D01*
X1838D01*
Y1595D01*
X1798D01*
X1633D02*
Y1635D01*
X1673D01*
Y1595D01*
X1633D01*
Y1380D02*
Y1420D01*
X1673D01*
Y1380D01*
X1633D01*
X1798D02*
Y1420D01*
X1838D01*
Y1380D01*
X1798D01*
X2465Y1595D02*
Y1635D01*
X2505D01*
Y1595D01*
X2465D01*
X2300D02*
Y1635D01*
X2340D01*
Y1595D01*
X2300D01*
Y1380D02*
Y1420D01*
X2340D01*
Y1380D01*
X2300D01*
X2465D02*
Y1420D01*
X2505D01*
Y1380D01*
X2465D01*
M02*
